<svg width="512" height="512" viewBox="0 0 512 512" fill="none" xmlns="http://www.w3.org/2000/svg">
<rect width="512" height="512" rx="80" fill="url(#paint0_linear_2109_2)"/>
<path d="M121 166H391V241H421V166C421 149.5 407.5 136 391 136H121C104.5 136 91 149.5 91 166V346C91 362.5 104.5 376 121 376H256V346H121V166Z" fill="white"/>
<path d="M301 256L211 196V316L301 256ZM416.65 352.45C417.1 348.1 417.25 343.75 416.8 339.55L432.85 326.8C434.35 325.6 434.65 323.65 433.75 322L418.3 295.15C417.4 293.5 415.45 292.9 413.65 293.5L394.45 301C390.978 298.438 387.199 296.321 383.2 294.7L380.2 274.3C380.093 273.384 379.65 272.54 378.958 271.931C378.266 271.322 377.372 270.99 376.45 271H345.4C343.6 271 341.95 272.35 341.65 274.15L338.65 294.55C334.75 296.2 331 298.45 327.55 300.85L308.35 293.35C306.55 292.6 304.6 293.35 303.7 295L288.25 321.85C287.35 323.5 287.65 325.45 289.15 326.65L305.2 339.55C304.75 343.9 304.6 348.25 305.05 352.45L289 365.2C287.5 366.4 287.2 368.35 288.1 370L303.55 396.85C304.45 398.5 306.4 399.1 308.2 398.5L327.25 391C330.7 393.55 334.45 395.65 338.5 397.3L341.5 417.7C341.8 419.5 343.3 420.85 345.25 420.85H376.3C378.1 420.85 379.75 419.5 380.05 417.7L383.05 397.3C386.95 395.65 390.7 393.4 394.15 391L413.35 398.5C415.15 399.25 417.1 398.5 418 396.85L433.45 370C434.35 368.35 434.05 366.4 432.55 365.2L416.65 352.45ZM361 368.5C348.55 368.5 338.5 358.45 338.5 346C338.5 333.55 348.55 323.5 361 323.5C373.45 323.5 383.5 333.55 383.5 346C383.5 358.45 373.45 368.5 361 368.5Z" fill="white"/>
<defs>
<linearGradient id="paint0_linear_2109_2" x1="256" y1="0" x2="256" y2="512" gradientUnits="userSpaceOnUse">
<stop stop-color="#EF15BF"/>
<stop offset="1" stop-color="#7515EF"/>
</linearGradient>
</defs>
</svg>
